<svg xmlns="http://www.w3.org/2000/svg" width="17.719" height="18.121" viewBox="0 0 17.719 18.121"><g transform="translate(-5.411)"><g transform="translate(5.411)"><path d="M119.293,258.653a.411.411,0,0,0-.411-.411h-1.435a.411.411,0,0,0-.411.411v1.435a.411.411,0,0,0,.411.411h1.435a.411.411,0,0,0,.411-.411v-1.435Z" transform="translate(-112.891 -248.656)"/><path d="M215.927,258.653a.411.411,0,0,0-.411-.411h-1.435a.411.411,0,0,0-.411.411v1.435a.411.411,0,0,0,.411.411h1.435a.411.411,0,0,0,.411-.411Z" transform="translate(-205.939 -248.656)"/><path d="M312.556,258.653a.411.411,0,0,0-.411-.411h-1.435a.411.411,0,0,0-.411.411v1.435a.411.411,0,0,0,.411.411h1.435a.411.411,0,0,0,.411-.411Z" transform="translate(-298.98 -248.656)"/><path d="M119.293,355.286a.411.411,0,0,0-.411-.411h-1.435a.411.411,0,0,0-.411.411v1.435a.411.411,0,0,0,.411.411h1.435a.411.411,0,0,0,.411-.411v-1.435Z" transform="translate(-112.891 -341.702)"/><path d="M215.927,355.286a.411.411,0,0,0-.411-.411h-1.435a.411.411,0,0,0-.411.411v1.435a.411.411,0,0,0,.411.411h1.435a.411.411,0,0,0,.411-.411Z" transform="translate(-205.939 -341.702)"/><path d="M312.556,355.286a.411.411,0,0,0-.411-.411h-1.435a.411.411,0,0,0-.411.411v1.435a.411.411,0,0,0,.411.411h1.435a.411.411,0,0,0,.411-.411v-1.435Z" transform="translate(-298.98 -341.702)"/><path d="M21.553,54.15v2.192a1.79,1.79,0,0,1-1.794,1.789H18.626a1.8,1.8,0,0,1-1.805-1.789v-2.2h-5.1v2.2a1.8,1.8,0,0,1-1.8,1.789H8.782a1.79,1.79,0,0,1-1.794-1.789V54.15a1.632,1.632,0,0,0-1.577,1.623V68.619a1.632,1.632,0,0,0,1.624,1.634h14.47a1.634,1.634,0,0,0,1.624-1.634V55.773A1.632,1.632,0,0,0,21.553,54.15Zm-.526,13.669a.7.7,0,0,1-.7.7H8.185a.7.7,0,0,1-.7-.7V61.184a.7.7,0,0,1,.7-.7h12.14a.7.7,0,0,1,.7.7v6.635Z" transform="translate(-5.411 -52.132)"/><path d="M80.165,4.824h1.12a.615.615,0,0,0,.615-.615V.615A.615.615,0,0,0,81.285,0h-1.12a.615.615,0,0,0-.615.615V4.209A.615.615,0,0,0,80.165,4.824Z" transform="translate(-76.798)"/><path d="M345.073,4.824h1.12a.615.615,0,0,0,.615-.615V.615A.615.615,0,0,0,346.193,0h-1.12a.615.615,0,0,0-.615.615V4.209A.615.615,0,0,0,345.073,4.824Z" transform="translate(-331.872)"/></g></g></svg>