<svg xmlns="http://www.w3.org/2000/svg" width="20.804" height="16.982" viewBox="0 0 20.804 16.982"><g transform="translate(0 -36.648)"><g transform="translate(0 36.648)"><g transform="translate(0 0)"><path d="M56.743,206.117a2.707,2.707,0,0,1-2.671,0l-6.045-3.708s-.546-.334-.546.423v3.7c0,1.95,3.549,4.053,7.926,4.053s7.926-2.1,7.926-4.053v-3.911c0-.608-.388-.311-.388-.311Z" transform="translate(-45.006 -193.606)"/><path d="M20.456,42.5a.559.559,0,0,0,0-1.036l-9.209-4.605a1.776,1.776,0,0,0-1.689,0L.348,41.467a.559.559,0,0,0,0,1.036L9.557,48.15a1.776,1.776,0,0,0,1.689,0" transform="translate(0 -36.648)"/><path d="M357.34,192.132v-6.238s0-.3-.171-.2a5.1,5.1,0,0,0-.607.376.524.524,0,0,0-.109.4v5.664a.166.166,0,0,1-.1.138,1.078,1.078,0,1,0,1.087,0A.161.161,0,0,1,357.34,192.132Z" transform="translate(-337.265 -177.905)"/></g></g></g></svg>