<svg xmlns="http://www.w3.org/2000/svg" width="17.163" height="20.1" viewBox="0 0 17.163 20.1"><path d="M21.294,0H15.956a.821.821,0,0,0,0,1.642h3.355L16.352,4.6a4.532,4.532,0,0,0-2.285-.618,4.231,4.231,0,0,0-2.259.627h0a4.555,4.555,0,1,0-3.12,8.41v3.143H6.846a.821.821,0,1,0,0,1.643H8.688v1.473a.821.821,0,0,0,1.643,0V17.806h1.842a.821.821,0,1,0,0-1.643H10.331V13.022a4.525,4.525,0,0,0,1.388-.5l.059-.051A4.554,4.554,0,0,0,17.606,5.67L20.472,2.8V6.158a.821.821,0,0,0,1.642,0V.821A.821.821,0,0,0,21.294,0ZM10.465,11.324l0,0a2.994,2.994,0,0,1-3.02-.718,2.923,2.923,0,0,1,3.047-4.821A4.465,4.465,0,0,0,9.509,8.54,4.535,4.535,0,0,0,10.465,11.324Zm1.325-.956c-.02-.025-.044-.047-.063-.073a3.077,3.077,0,0,1,.039-3.616A2.936,2.936,0,0,1,11.79,10.368Zm4.346.24a2.928,2.928,0,0,1-2.933.726c-.024-.007-.048-.019-.072-.027a4.456,4.456,0,0,0,.937-2.767,4.532,4.532,0,0,0-.948-2.776,3.085,3.085,0,0,1,3.017.707A2.929,2.929,0,0,1,16.136,10.608Z" transform="translate(-4.952)"/></svg>