<svg xmlns="http://www.w3.org/2000/svg" width="21.288" height="17.466" viewBox="0 0 21.288 17.466"><g transform="translate(0 0)"><path d="M24.747,27.724v-.473a1.044,1.044,0,0,0-2.087,0v.473a1.044,1.044,0,0,0,2.087,0Z" transform="translate(-13.059 -17.014)"/><path d="M12.986,30.757a1.835,1.835,0,0,1-3.519,0H2.277a2.941,2.941,0,0,1-1.267-.289v4.774A1.7,1.7,0,0,0,2.7,36.936H19.747a1.7,1.7,0,0,0,1.695-1.695V30.468a2.941,2.941,0,0,1-1.267.289Z" transform="translate(-0.582 -19.47)"/><path d="M19.521,7.224H15.453a3.227,3.227,0,0,0-3.181-2.715H9.013A3.228,3.228,0,0,0,5.832,7.224H1.764A1.736,1.736,0,0,0,0,8.919V12.83a1.7,1.7,0,0,0,1.695,1.695H8.8a1.841,1.841,0,0,1,.564-1.243c.01-.009.022-.017.033-.027a1.861,1.861,0,0,1,.233-.186c.03-.02.064-.033.094-.051a1.811,1.811,0,0,1,.211-.111,1.845,1.845,0,0,1,.182-.056c.053-.016.1-.036.157-.047a1.834,1.834,0,0,1,.366-.037,1.855,1.855,0,0,1,.366.037c.054.011.1.032.158.047a1.806,1.806,0,0,1,.182.057,1.831,1.831,0,0,1,.21.111c.031.018.065.032.1.052a1.816,1.816,0,0,1,.233.186c.011.01.024.017.033.028a1.838,1.838,0,0,1,.564,1.243h7.109a1.7,1.7,0,0,0,1.695-1.695V8.919A1.736,1.736,0,0,0,19.521,7.224Zm-12.057,0A1.636,1.636,0,0,1,9.013,6.1h3.26a1.636,1.636,0,0,1,1.549,1.129Z" transform="translate(0.001 -4.509)"/></g></svg>