<svg xmlns="http://www.w3.org/2000/svg" width="278.832" height="79.144" viewBox="0 0 278.832 79.144"><g transform="translate(-735.767 -359.735)"><g transform="translate(735.767 359.735)"><path d="M33.152,42.776v29.5a3.591,3.591,0,0,1-3.577,3.577h0A3.591,3.591,0,0,1,26,72.276v-29.5a10.506,10.506,0,0,0-4.339-8.512.683.683,0,0,1,.166-1.214,19.39,19.39,0,0,0,5.344-2.837.589.589,0,0,1,.773.044,17.79,17.79,0,0,1,5.211,12.52Z" transform="translate(2.227 3.13)" fill="#212529"/><path d="M60.945,43.711V72.748a3.572,3.572,0,0,1-3.566,3.566h-.022a3.572,3.572,0,0,1-3.566-3.566V43.578a10.75,10.75,0,0,0-8.976-10.754,10.543,10.543,0,0,0-12.1,10.422V72.759a3.572,3.572,0,0,1-3.566,3.566h-.022a3.572,3.572,0,0,1-3.566-3.566V43.247A17.675,17.675,0,0,1,45.267,25.671C54.288,26.664,60.945,34.636,60.945,43.711Z" transform="translate(2.665 2.658)" fill="#212529"/><path d="M16.815.022a17.7,17.7,0,0,0-9.8,31.786,16.836,16.836,0,0,0-1.446,1.214A17.655,17.655,0,0,0,0,45.907v29.5a3.572,3.572,0,0,0,3.566,3.566h.022a3.572,3.572,0,0,0,3.566-3.566v-29.5a10.532,10.532,0,0,1,5.6-9.307,10.408,10.408,0,0,1,4.593-1.214h.685A17.694,17.694,0,1,0,16.815.022Zm1.336,28.2h-.033c-.144.011-.287.011-.431.011s-.287,0-.431-.011h-.033A10.527,10.527,0,0,1,7.155,17.267a10.65,10.65,0,0,1,10.224-10.1,10.535,10.535,0,0,1,.773,21.054Z" transform="translate(0.004 -0.001)" fill="#febf10"/></g><path d="M45.491-42.825A21.214,21.214,0,0,1,39.84-27.7q-5.651,6.01-14.666,6.01A18.214,18.214,0,0,1,11.019-27.7q-5.447-6.01-5.447-15.127v-8.844A21.753,21.753,0,0,1,11.019-66.8,18.166,18.166,0,0,1,25.173-72.84q9.015,0,14.666,6.027a21.274,21.274,0,0,1,5.651,15.144Zm-6.727-8.913a16.771,16.771,0,0,0-3.688-11.2,12.293,12.293,0,0,0-9.9-4.371A11.392,11.392,0,0,0,15.8-62.938a17.359,17.359,0,0,0-3.5,11.2v8.913q0,6.9,3.5,11.269a11.392,11.392,0,0,0,9.374,4.371,12.3,12.3,0,0,0,9.92-4.354q3.671-4.354,3.671-11.286Zm53.1-20.386v33.7q0,8.127-5.276,12.43t-13.779,4.3q-8.2,0-13.3-4.32T54.4-38.42v-33.7h6.727v33.678q0,5.63,3.21,8.548a12.1,12.1,0,0,0,8.469,2.917,13.228,13.228,0,0,0,8.93-2.917q3.4-2.917,3.4-8.548V-72.123Zm22.3,45.143a9.55,9.55,0,0,0,7.871-3.712q2.954-3.712,2.954-11.04v-2.254a10.952,10.952,0,0,1-4.183,3.671,12.378,12.378,0,0,1-5.583,1.246q-7.205,0-11.439-4.456T99.547-55.8a17.188,17.188,0,0,1,4.49-12.259,14.411,14.411,0,0,1,10.91-4.781q7.786,0,12.276,4.866t4.49,14.325V-41.8q0,9.732-4.866,14.922a16.59,16.59,0,0,1-12.686,5.19,29.557,29.557,0,0,1-5.344-.5,19.261,19.261,0,0,1-4.866-1.53l1.024-5.177a15.314,15.314,0,0,0,4.183,1.485A26.114,26.114,0,0,0,114.162-26.98Zm1.059-17.381a11.187,11.187,0,0,0,6.2-1.6,9.268,9.268,0,0,0,3.568-4.092v-4.3q0-6.513-2.51-9.854a8.594,8.594,0,0,0-7.325-3.342,7.768,7.768,0,0,0-6.283,3.29,13.216,13.216,0,0,0-2.6,8.439,13.339,13.339,0,0,0,2.407,8.286A7.774,7.774,0,0,0,115.221-44.361Zm56.514-1.093H148.958V-27.7h26.259V-22.4H142.231V-72.123h32.611v5.293H148.958v16.083h22.776ZM212.507-44.4H189.833V-22.4h-6.727V-72.123H215.99v5.293H189.833v17.142h22.674Z" transform="translate(798.609 460.566)" fill="#212529"/></g></svg>