<svg xmlns="http://www.w3.org/2000/svg" width="21" height="21" viewBox="0 0 21 21"><path d="M10.5,5.25a.878.878,0,0,0-.875-.875H5.093L5.67,1.592l.017-.2A1.016,1.016,0,0,0,5.4.691L4.707,0,.385,4.323A1.317,1.317,0,0,0,0,5.25v5.688A1.311,1.311,0,0,0,1.313,12.25H7.219a1.32,1.32,0,0,0,1.208-.8L10.4,6.825a1.276,1.276,0,0,0,.1-.481Zm9.188,3.5H13.781a1.32,1.32,0,0,0-1.208.8L10.6,14.175a1.276,1.276,0,0,0-.1.481V15.75a.878.878,0,0,0,.875.875h4.533l-.578,2.783-.017.21a1.016,1.016,0,0,0,.289.7l.691.683,4.323-4.323A1.317,1.317,0,0,0,21,15.75V10.063A1.311,1.311,0,0,0,19.688,8.75Z"/></svg>