<svg xmlns="http://www.w3.org/2000/svg" width="108.516" height="102.419" viewBox="0 0 108.516 102.419">
  <g id="Groupe_59" data-name="Groupe 59" transform="translate(-690 -1446.581)">
    <path id="Tracé_22" data-name="Tracé 22" d="M49.1,28.548A20.548,20.548,0,1,1,28.548,8,20.547,20.547,0,0,1,49.1,28.548Zm0,0" transform="translate(683.581 1438.581)" fill="#b4dd7f"/>
    <g id="Groupe_57" data-name="Groupe 57" transform="translate(710 1446.581)">
      <path id="Tracé_23" data-name="Tracé 23" d="M68.452,54.226A14.226,14.226,0,1,1,54.226,40,14.226,14.226,0,0,1,68.452,54.226Zm0,0" transform="translate(-40 -33.677)" fill="#e6e9ed"/>
      <path id="Tracé_24" data-name="Tracé 24" d="M185.1,76.742v4.742l11.064,6.323h1.581l6.844-13.689A3.836,3.836,0,0,1,208.016,72h.11a3.845,3.845,0,0,1,3.841,3.841,3.773,3.773,0,0,1-.411,1.706l-7.888,15.806a4.3,4.3,0,0,1-3.825,2.356,4.43,4.43,0,0,1-1.027-.127l-12.14-3.035-3.161,15.806L198,118.882A7.062,7.062,0,0,1,200.9,124.6a7.16,7.16,0,0,1-.364,2.229l-8.188,24.579a4.082,4.082,0,0,1-3.872,2.782h-.885a4.094,4.094,0,0,1-3.873-5.374l7.7-23.078-15.806-11.064-4.3,18.651a6.381,6.381,0,0,1-1.881,3.225L151.6,153.008a4.461,4.461,0,0,1-3.035,1.185h-.095a4.471,4.471,0,0,1-3.161-7.635L162.968,128.9l7.9-36.355h-4.742l-6.923,16.628a3.795,3.795,0,0,1-7.3-1.454v-.174a4.021,4.021,0,0,1,.3-1.486l7.9-18.446a6.285,6.285,0,0,1,4.442-3.667l11.065-2.466V76.742a7.9,7.9,0,0,0,9.484,0Zm0,0" transform="translate(-123.452 -59.355)" fill="#e6e9ed"/>
      <path id="Tracé_25" data-name="Tracé 25" d="M303.806,15.9v3.161a7.919,7.919,0,0,1-3.161,6.323,7.9,7.9,0,0,1-9.484,0A7.919,7.919,0,0,1,288,19.065V15.9a7.9,7.9,0,1,1,15.806,0Zm0,0" transform="translate(-239 -8)" fill="#e6e9ed"/>
    </g>
    <path id="Tracé_26" data-name="Tracé 26" d="M104,88v6.323h6.323V91.161h-3.161V88Zm0,0" transform="translate(606.548 1374.387)"/>
    <path id="Tracé_27" data-name="Tracé 27" d="M49.387,84.487V79.854H46.226v4.633A12.66,12.66,0,0,1,35.27,73.532H39.9V70.37H35.27a12.5,12.5,0,0,1,2.662-6.3L35.462,62.09A15.647,15.647,0,0,0,32,71.951,15.824,15.824,0,0,0,47.807,87.757,15.647,15.647,0,0,0,57.668,84.3l-1.976-2.469a12.488,12.488,0,0,1-6.3,2.66Zm0,0" transform="translate(664.323 1395.178)"/>
    <path id="Tracé_28" data-name="Tracé 28" d="M71.951,32a15.647,15.647,0,0,0-9.861,3.462l1.976,2.469a12.488,12.488,0,0,1,6.3-2.66V39.9h3.161V35.27A12.658,12.658,0,0,1,84.487,46.226H79.854v3.161h4.635a12.492,12.492,0,0,1-2.663,6.3l2.469,1.976a15.633,15.633,0,0,0,3.463-9.861A15.824,15.824,0,0,0,71.951,32Zm0,0" transform="translate(640.178 1419.323)"/>
    <path id="Tracé_29" data-name="Tracé 29" d="M78.3,94.13l8.193-24.574a8.643,8.643,0,0,0-3.116-9.724L69.716,49.9l2.638-13.189,10.526,2.63a5.838,5.838,0,0,0,6.65-3.056l7.9-15.8a5.419,5.419,0,0,0-4.962-7.838,5.385,5.385,0,0,0-4.845,3L81.216,28.451h-.183l-9.9-5.659v-3.1a9.451,9.451,0,0,0,3.161-7.05V9.484a9.484,9.484,0,1,0-18.968,0v3.161a9.456,9.456,0,0,0,3.161,7.05v2.749l-9.825,2.183a7.924,7.924,0,0,0-5.55,4.6l-.282.661a22.19,22.19,0,1,0-.778,1.816L35.21,47.662a5.327,5.327,0,0,0-.436,2.115v.171a5.374,5.374,0,0,0,10.334,2.068l6.526-15.661h1.726L45.973,70.34,28.643,87.67a6.01,6.01,0,0,0-1.772,4.279,5.947,5.947,0,0,0,.771,2.89H6.323V98H91.677V94.839H78a5.816,5.816,0,0,0,.3-.709ZM22.129,41.1A18.968,18.968,0,1,1,41.1,22.129,18.988,18.988,0,0,1,22.129,41.1ZM58.484,9.484a6.323,6.323,0,1,1,12.645,0v3.161a6.323,6.323,0,1,1-12.645,0Zm8.51,85.355H38.818l16.143-14.9a7.866,7.866,0,0,0,2.341-4.03L61.078,59.54,74,68.586,66.68,90.549a5.522,5.522,0,0,0,.314,4.29Zm5.054,0a2.5,2.5,0,0,1-2.371-3.289l8.068-24.2L59.053,54.265,54.221,75.2a4.716,4.716,0,0,1-1.405,2.417L34.986,94.072a2.948,2.948,0,0,1-2.064.766,2.89,2.89,0,0,1-2.044-4.933L48.866,71.918l8.419-38.724H49.526L42.19,50.8a2.213,2.213,0,0,1-4.255-.852V49.78a2.255,2.255,0,0,1,.178-.873l7.9-18.434a4.753,4.753,0,0,1,3.329-2.759l12.3-2.737v-3.4a9.306,9.306,0,0,0,6.323,0v3.051l12.225,6.986h2.978l7.279-14.559a2.3,2.3,0,0,1,2.134-1.247A2.258,2.258,0,0,1,94.6,19.072l-7.9,15.8a2.707,2.707,0,0,1-3.054,1.405L69.9,32.839,66.22,51.264l15.3,11.126a5.479,5.479,0,0,1,1.973,6.164L75.3,93.132a2.5,2.5,0,0,1-2.369,1.707Zm0,0" transform="translate(690 1451)"/>
    <path id="Tracé_30" data-name="Tracé 30" d="M0,480H3.161v3.161H0Zm0,0" transform="translate(690 1059.839)"/>
    <path id="Tracé_31" data-name="Tracé 31" d="M480,480h3.161v3.161H480Zm0,0" transform="translate(304.839 1059.839)"/>
    <path id="Tracé_32" data-name="Tracé 32" d="M32,432H47.806v3.161H32Zm0,0" transform="translate(664.323 1098.355)"/>
    <path id="Tracé_33" data-name="Tracé 33" d="M0,400H3.161v3.161H0Zm0,0" transform="translate(690 1124.032)"/>
    <path id="Tracé_34" data-name="Tracé 34" d="M32,400H55.71v3.161H32Zm0,0" transform="translate(664.323 1124.032)"/>
    <path id="Tracé_35" data-name="Tracé 35" d="M72,352H95.71v3.161H72Zm0,0" transform="translate(632.226 1162.549)"/>
    <path id="Tracé_36" data-name="Tracé 36" d="M40,320h3.161v3.161H40Zm0,0" transform="translate(657.903 1188.226)"/>
    <path id="Tracé_37" data-name="Tracé 37" d="M72,320H87.806v3.161H72Zm0,0" transform="translate(632.226 1188.226)"/>
    <path id="Tracé_38" data-name="Tracé 38" d="M32,272H47.806v3.161H32Zm0,0" transform="translate(664.323 1226.742)"/>
    <path id="Tracé_39" data-name="Tracé 39" d="M0,240H3.161v3.161H0Zm0,0" transform="translate(690 1252.42)"/>
    <path id="Tracé_40" data-name="Tracé 40" d="M32,240H57.29v3.161H32Zm0,0" transform="translate(664.323 1252.42)"/>
  </g>
</svg>
