<svg xmlns="http://www.w3.org/2000/svg" width="24.474" height="24.586" viewBox="0 0 24.474 24.586"><g transform="translate(-289.894 -471.896)"><g transform="translate(290.318 472.321)"><path d="M19.344,43.118l1.669-6.095a11.764,11.764,0,1,1,10.194,5.891H31.2a11.762,11.762,0,0,1-5.621-1.431Zm0,0" transform="translate(-19.344 -19.383)"/></g><g transform="translate(289.894 471.896)"><path d="M10.894,35.481l1.729-6.313a12.187,12.187,0,1,1,10.56,6.1h-.005a12.176,12.176,0,0,1-5.823-1.483Zm6.759-3.9.37.219a10.115,10.115,0,0,0,5.155,1.412h0a10.128,10.128,0,1,0-8.58-4.746l.241.383L13.82,32.586Zm0,0" transform="translate(-10.894 -10.895)" fill="#fff"/><path d="M135.592,142.146c-.228-.507-.468-.517-.685-.526-.177-.008-.381-.007-.583-.007a1.119,1.119,0,0,0-.812.381,3.413,3.413,0,0,0-1.066,2.539,5.923,5.923,0,0,0,1.243,3.149,12.5,12.5,0,0,0,5.2,4.6c2.572,1.014,3.1.813,3.654.762a3.075,3.075,0,0,0,2.055-1.448,2.543,2.543,0,0,0,.178-1.448c-.076-.127-.279-.2-.584-.355s-1.8-.889-2.081-.991-.482-.152-.685.153-.786.99-.964,1.193-.355.229-.66.077a8.326,8.326,0,0,1-2.448-1.511,9.174,9.174,0,0,1-1.694-2.109c-.177-.3,0-.455.134-.621a9.18,9.18,0,0,0,.761-1.041.561.561,0,0,0-.025-.533C136.455,144.254,135.863,142.749,135.592,142.146Zm0,0" transform="translate(-126.35 -135.057)" fill="#fff" fill-rule="evenodd"/></g></g></svg>