<svg xmlns="http://www.w3.org/2000/svg" width="122.121" height="78.525" viewBox="0 0 122.121 78.525"><g transform="translate(1 0.742)"><path d="M117.018,58.767H1.983A1.983,1.983,0,0,1,0,56.784V2.241A1.983,1.983,0,0,1,1.983.258H117.018A1.983,1.983,0,0,1,119,2.241V56.784A1.983,1.983,0,0,1,117.018,58.767Zm0,0" transform="translate(0 0)" fill="#ccc033" stroke="#212529" stroke-width="2"/><path d="M9.917,56.784V2.241A1.983,1.983,0,0,1,11.9.258H1.983A1.983,1.983,0,0,0,0,2.241V56.784a1.983,1.983,0,0,0,1.983,1.983H11.9A1.983,1.983,0,0,1,9.917,56.784Zm0,0" transform="translate(0 0)" fill="#99af17" stroke="#212529" stroke-width="2"/><path d="M191.6,46.058a23.8,23.8,0,1,1-23.8-23.8A23.8,23.8,0,0,1,191.6,46.058Zm0,0" transform="translate(-108.3 -16.546)" fill="#99af17" stroke="#212529" stroke-width="2"/><path d="M196.642,53.579a21.321,21.321,0,1,1-21.321-21.321A21.321,21.321,0,0,1,196.642,53.579Zm0,0" transform="translate(-115.82 -24.067)" fill="#fcda4f" stroke="#212529" stroke-width="2"/><path d="M434.875,189.15V176.258A14.875,14.875,0,0,0,420,191.133h12.892A1.983,1.983,0,0,0,434.875,189.15Zm0,0" transform="translate(-315.874 -132.366)" fill="#eacf32" stroke="#212529" stroke-width="2"/><path d="M432.892.258H420a14.875,14.875,0,0,0,14.875,14.875V2.241A1.983,1.983,0,0,0,432.892.258Zm0,0" transform="translate(-315.874 0)" fill="#eacf32" stroke="#212529" stroke-width="2"/><path d="M205.675,72.549c-4.964-.586-8.553-3.351-8.8-7.928a.489.489,0,0,1,.49-.508H201.8a.488.488,0,0,1,.486.41,4.3,4.3,0,0,0,3.206,3.753.494.494,0,0,0,.625-.477V59.036a.491.491,0,0,0-.369-.477c-4.3-1.09-8.882-2.435-8.882-8.521,0-4.839,3.587-8.208,8.813-8.835a.492.492,0,0,0,.438-.487V38.009a.491.491,0,0,1,.489-.494h1.885a.491.491,0,0,1,.489.494v2.659a.493.493,0,0,0,.439.488c4.635.541,7.816,3.126,8.4,7.646a.483.483,0,0,1-.485.568h-4.408a.48.48,0,0,1-.476-.383,4.486,4.486,0,0,0-2.808-3.357.491.491,0,0,0-.662.465v8.525a.491.491,0,0,0,.374.478c4.3,1.046,8.833,2.35,8.833,8.434,0,4.2-3.1,8.274-8.769,8.968a.494.494,0,0,0-.438.488V75.7a.491.491,0,0,1-.489.493H206.6a.491.491,0,0,1-.489-.493V73.035a.494.494,0,0,0-.439-.486Zm.438-18.985V45.874a.494.494,0,0,0-.6-.485,4.188,4.188,0,0,0-3.545,4.382c0,2.33,1.443,3.5,3.48,4.257a.493.493,0,0,0,.661-.465Zm2.864,6.533v7.709a.5.5,0,0,0,.621.479,4.508,4.508,0,0,0,3.52-4.482c0-2.291-1.444-3.418-3.482-4.171a.492.492,0,0,0-.66.465Zm0,0" transform="translate(-148.057 -28.021)" fill="#99af17" stroke="#212529" stroke-width="2"/><path d="M0,176.258V189.15a1.983,1.983,0,0,0,1.983,1.983H14.875A14.875,14.875,0,0,0,0,176.258Zm0,0" transform="translate(0 -132.366)" fill="#eacf32" stroke="#212529" stroke-width="2"/><path d="M0,2.241V15.133A14.875,14.875,0,0,0,14.875.258H1.983A1.983,1.983,0,0,0,0,2.241Zm0,0" fill="#eacf32" stroke="#212529" stroke-width="2"/><path d="M9.917,189.15v-9.1A14.818,14.818,0,0,0,0,176.258V189.15a1.983,1.983,0,0,0,1.983,1.983H11.9A1.983,1.983,0,0,1,9.917,189.15Zm0,0" transform="translate(0 -132.366)" fill="#ccc033" stroke="#212529" stroke-width="2"/><path d="M9.917,2.241A1.983,1.983,0,0,1,11.9.258H1.983A1.983,1.983,0,0,0,0,2.241V15.133a14.818,14.818,0,0,0,9.917-3.791Zm0,0" transform="translate(0 0)" fill="#ccc033" stroke="#212529" stroke-width="2"/><path d="M58.683,166.506a4.463,4.463,0,1,1-4.463-4.463A4.462,4.462,0,0,1,58.683,166.506Zm0,0" transform="translate(-37.422 -121.675)" fill="#99af17" stroke="#212529" stroke-width="2"/><path d="M237.6,284.859H190.992a.991.991,0,0,1-.992-.992v-5.95a.991.991,0,0,1,.992-.992H237.6a.991.991,0,0,1,.992.992v5.95A.992.992,0,0,1,237.6,284.859Zm0,0" transform="translate(-142.895 -208.077)" fill="#f9bb32" stroke="#212529" stroke-width="2"/><path d="M203.883,283.868v-5.95a.991.991,0,0,1,.992-.992H190.992a.991.991,0,0,0-.992.992v5.95a.992.992,0,0,0,.992.992h13.884A.992.992,0,0,1,203.883,283.868Zm0,0" transform="translate(-142.895 -208.077)" fill="#db9c2e" stroke="#212529" stroke-width="2"/><path d="M215.356,283.042a.872.872,0,0,1-.872-.873v-5.243h1.743v5.243A.871.871,0,0,1,215.356,283.042Zm0,0" transform="translate(-161.309 -208.077)" fill="#ffd551" stroke="#212529" stroke-width="2"/><g transform="translate(60.117 68.849)"><path d="M243.356,283.042a.872.872,0,0,1-.872-.873v-5.243h1.743v5.243A.871.871,0,0,1,243.356,283.042Zm0,0" transform="translate(-242.484 -276.926)" fill="#ffea63" stroke="#212529" stroke-width="2"/><path d="M271.356,283.042a.872.872,0,0,1-.872-.873v-5.243h1.743v5.243A.871.871,0,0,1,271.356,283.042Zm0,0" transform="translate(-263.543 -276.926)" fill="#ffea63" stroke="#212529" stroke-width="2"/><path d="M299.356,283.042a.872.872,0,0,1-.872-.873v-5.243h1.743v5.243A.871.871,0,0,1,299.356,283.042Zm0,0" transform="translate(-284.601 -276.926)" fill="#ffea63" stroke="#212529" stroke-width="2"/><path d="M327.356,283.042a.872.872,0,0,1-.872-.873v-5.243h1.743v5.243A.871.871,0,0,1,327.356,283.042Zm0,0" transform="translate(-305.659 -276.926)" fill="#ffea63" stroke="#212529" stroke-width="2"/><path d="M355.356,283.042a.872.872,0,0,1-.872-.873v-5.243h1.743v5.243A.871.871,0,0,1,355.356,283.042Zm0,0" transform="translate(-326.717 -276.926)" fill="#ffea63" stroke="#212529" stroke-width="2"/></g><path d="M242.484,276.926v5.243a.872.872,0,0,0,.872.873v-5.124a.989.989,0,0,1,.872-.98v-.012Zm0,0" transform="translate(-182.367 -208.077)" fill="#ffd551" stroke="#212529" stroke-width="2"/><path d="M253.6,252.859H206.992a.991.991,0,0,1-.992-.992v-5.95a.991.991,0,0,1,.992-.992H253.6a.991.991,0,0,1,.992.992v5.95A.992.992,0,0,1,253.6,252.859Zm0,0" transform="translate(-154.929 -184.01)" fill="#f9bb32" stroke="#212529" stroke-width="2"/><path d="M219.883,251.868v-5.95a.991.991,0,0,1,.992-.992H206.992a.991.991,0,0,0-.992.992v5.95a.992.992,0,0,0,.992.992h13.884A.992.992,0,0,1,219.883,251.868Zm0,0" transform="translate(-154.929 -184.01)" fill="#db9c2e" stroke="#212529" stroke-width="2"/><path d="M231.356,251.042a.872.872,0,0,1-.872-.873v-5.243h1.743v5.243A.871.871,0,0,1,231.356,251.042Zm0,0" transform="translate(-173.343 -184.01)" fill="#ffd551" stroke="#212529" stroke-width="2"/><path d="M259.356,251.042a.872.872,0,0,1-.872-.873v-5.243h1.743v5.243A.871.871,0,0,1,259.356,251.042Zm0,0" transform="translate(-194.401 -184.01)" fill="#ffea63" stroke="#212529" stroke-width="2"/><path d="M287.356,251.042a.872.872,0,0,1-.872-.873v-5.243h1.743v5.243A.871.871,0,0,1,287.356,251.042Zm0,0" transform="translate(-215.459 -184.01)" fill="#ffea63" stroke="#212529" stroke-width="2"/><path d="M315.356,251.042a.872.872,0,0,1-.872-.873v-5.243h1.743v5.243A.871.871,0,0,1,315.356,251.042Zm0,0" transform="translate(-236.518 -184.01)" fill="#ffea63" stroke="#212529" stroke-width="2"/><path d="M343.356,251.042a.872.872,0,0,1-.872-.873v-5.243h1.743v5.243A.871.871,0,0,1,343.356,251.042Zm0,0" transform="translate(-257.576 -184.01)" fill="#ffea63" stroke="#212529" stroke-width="2"/><path d="M371.356,251.042a.872.872,0,0,1-.872-.873v-5.243h1.743v5.243A.871.871,0,0,1,371.356,251.042Zm0,0" transform="translate(-278.634 -184.01)" fill="#ffea63" stroke="#212529" stroke-width="2"/><path d="M258.484,244.926v5.243a.872.872,0,0,0,.872.873v-5.124a.989.989,0,0,1,.872-.98v-.012Zm0,0" transform="translate(-194.401 -184.01)" fill="#ffd551" stroke="#212529" stroke-width="2"/><path d="M269.6,220.859H222.992a.991.991,0,0,1-.992-.992v-5.95a.991.991,0,0,1,.992-.992H269.6a.991.991,0,0,1,.992.992v5.95A.992.992,0,0,1,269.6,220.859Zm0,0" transform="translate(-166.962 -159.944)" fill="#f9bb32" stroke="#212529" stroke-width="2"/><path d="M235.884,219.868v-5.95a.991.991,0,0,1,.992-.992H222.992a.991.991,0,0,0-.992.992v5.95a.992.992,0,0,0,.992.992h13.883A.992.992,0,0,1,235.884,219.868Zm0,0" transform="translate(-166.962 -159.944)" fill="#db9c2e" stroke="#212529" stroke-width="2"/><path d="M247.356,219.042a.872.872,0,0,1-.872-.873v-5.243h1.743v5.243A.871.871,0,0,1,247.356,219.042Zm0,0" transform="translate(-185.376 -159.944)" fill="#ffd551" stroke="#212529" stroke-width="2"/><path d="M275.356,219.042a.872.872,0,0,1-.872-.873v-5.243h1.743v5.243A.871.871,0,0,1,275.356,219.042Zm0,0" transform="translate(-206.434 -159.944)" fill="#ffea63" stroke="#212529" stroke-width="2"/><path d="M303.356,219.042a.872.872,0,0,1-.872-.873v-5.243h1.743v5.243A.871.871,0,0,1,303.356,219.042Zm0,0" transform="translate(-227.493 -159.944)" fill="#ffea63" stroke="#212529" stroke-width="2"/><path d="M331.356,219.042a.872.872,0,0,1-.872-.873v-5.243h1.743v5.243A.871.871,0,0,1,331.356,219.042Zm0,0" transform="translate(-248.551 -159.944)" fill="#ffea63" stroke="#212529" stroke-width="2"/><path d="M359.356,219.042a.872.872,0,0,1-.872-.873v-5.243h1.743v5.243A.871.871,0,0,1,359.356,219.042Zm0,0" transform="translate(-269.609 -159.944)" fill="#ffea63" stroke="#212529" stroke-width="2"/><path d="M387.356,219.042a.872.872,0,0,1-.872-.873v-5.243h1.743v5.243A.871.871,0,0,1,387.356,219.042Zm0,0" transform="translate(-290.667 -159.944)" fill="#ffea63" stroke="#212529" stroke-width="2"/><path d="M274.484,212.926v5.243a.872.872,0,0,0,.872.873v-5.124a.989.989,0,0,1,.872-.98v-.012Zm0,0" transform="translate(-206.434 -159.944)" fill="#ffd551" stroke="#212529" stroke-width="2"/><path d="M237.6,188.859H190.992a.991.991,0,0,1-.992-.992v-5.95a.991.991,0,0,1,.992-.992H237.6a.991.991,0,0,1,.992.992v5.95A.992.992,0,0,1,237.6,188.859Zm0,0" transform="translate(-142.895 -135.877)" fill="#f9bb32" stroke="#212529" stroke-width="2"/><path d="M203.883,187.868v-5.95a.991.991,0,0,1,.992-.992H190.992a.991.991,0,0,0-.992.992v5.95a.992.992,0,0,0,.992.992h13.884A.992.992,0,0,1,203.883,187.868Zm0,0" transform="translate(-142.895 -135.877)" fill="#db9c2e" stroke="#212529" stroke-width="2"/><path d="M215.356,187.042a.872.872,0,0,1-.872-.873v-5.243h1.743v5.243A.871.871,0,0,1,215.356,187.042Zm0,0" transform="translate(-161.309 -135.877)" fill="#ffd551" stroke="#212529" stroke-width="2"/><path d="M243.356,187.042a.872.872,0,0,1-.872-.873v-5.243h1.743v5.243A.871.871,0,0,1,243.356,187.042Zm0,0" transform="translate(-182.368 -135.877)" fill="#ffea63" stroke="#212529" stroke-width="2"/><path d="M271.356,187.042a.872.872,0,0,1-.872-.873v-5.243h1.743v5.243A.871.871,0,0,1,271.356,187.042Zm0,0" transform="translate(-203.426 -135.877)" fill="#ffea63" stroke="#212529" stroke-width="2"/><path d="M299.356,187.042a.872.872,0,0,1-.872-.873v-5.243h1.743v5.243A.871.871,0,0,1,299.356,187.042Zm0,0" transform="translate(-224.484 -135.877)" fill="#ffea63" stroke="#212529" stroke-width="2"/><path d="M327.356,187.042a.872.872,0,0,1-.872-.873v-5.243h1.743v5.243A.871.871,0,0,1,327.356,187.042Zm0,0" transform="translate(-245.542 -135.877)" fill="#ffea63" stroke="#212529" stroke-width="2"/><path d="M355.356,187.042a.872.872,0,0,1-.872-.873v-5.243h1.743v5.243A.871.871,0,0,1,355.356,187.042Zm0,0" transform="translate(-266.601 -135.877)" fill="#ffea63" stroke="#212529" stroke-width="2"/><path d="M242.484,180.926v5.243a.872.872,0,0,0,.872.873v-5.124a.989.989,0,0,1,.872-.98v-.012Zm0,0" transform="translate(-182.367 -135.877)" fill="#ffd551" stroke="#212529" stroke-width="2"/><path d="M337.108,137.222a24.3,24.3,0,1,1-24.3-24.3A24.3,24.3,0,0,1,337.108,137.222Zm0,0" transform="translate(-216.987 -84.736)" fill="#db9c2e" stroke="#212529" stroke-width="2"/><path d="M302.4,137.222a24.3,24.3,0,0,1,17.354-23.284,24.3,24.3,0,1,0,0,46.568A24.3,24.3,0,0,1,302.4,137.222Zm0,0" transform="translate(-216.987 -84.735)" fill="#bf6c0d" stroke="#212529" stroke-width="2"/><path d="M345.175,149.255a20.329,20.329,0,1,1-20.329-20.329A20.33,20.33,0,0,1,345.175,149.255Zm0,0" transform="translate(-229.021 -96.769)" fill="#ffc34c" stroke="#212529" stroke-width="2"/><path d="M427.856,181.242a1.488,1.488,0,0,1-1.155-2.423,14.849,14.849,0,0,0-1.642-20.408,1.487,1.487,0,0,1,1.987-2.214,17.824,17.824,0,0,1,1.968,24.492A1.482,1.482,0,0,1,427.856,181.242Zm0,0" transform="translate(-319.307 -116.992)" fill="#ffd551" stroke="#212529" stroke-width="2"/><path d="M358.689,172.365c-4.041-.525-6.962-3.006-7.163-7.114a.423.423,0,0,1,.4-.456h3.606a.411.411,0,0,1,.4.368,3.769,3.769,0,0,0,2.61,3.367.412.412,0,0,0,.508-.429v-7.863a.435.435,0,0,0-.3-.428c-3.5-.979-7.229-2.185-7.229-7.647,0-4.344,2.92-7.366,7.173-7.93a.429.429,0,0,0,.355-.437v-2.429a.423.423,0,0,1,.4-.443h1.534a.423.423,0,0,1,.4.443v2.387a.427.427,0,0,0,.357.438,7.353,7.353,0,0,1,6.837,6.862.421.421,0,0,1-.394.509h-3.589a.4.4,0,0,1-.387-.343,3.952,3.952,0,0,0-2.285-3.012.406.406,0,0,0-.539.416v7.652a.433.433,0,0,0,.3.429c3.5.939,7.19,2.109,7.19,7.57a7.989,7.989,0,0,1-7.138,8.048.43.43,0,0,0-.356.438v2.429a.422.422,0,0,1-.4.443h-1.535a.422.422,0,0,1-.4-.443V172.8a.427.427,0,0,0-.355-.439Zm.356-17.037v-6.9a.414.414,0,0,0-.484-.435,3.682,3.682,0,0,0-2.886,3.933c0,2.091,1.174,3.139,2.832,3.82a.408.408,0,0,0,.538-.416Zm2.331,5.862v6.919a.413.413,0,0,0,.5.43,3.993,3.993,0,0,0,2.866-4.023c0-2.055-1.175-3.067-2.834-3.742a.407.407,0,0,0-.536.416Zm0,0" transform="translate(-264.368 -105.793)" fill="#bf6c0d" stroke="#212529" stroke-width="2"/><path d="M325.413,128.94c-.189-.006-.378-.015-.568-.015a20.329,20.329,0,1,0,0,40.659c.19,0,.378-.01.567-.015a24.283,24.283,0,0,1,0-40.63Zm0,0" transform="translate(-229.02 -96.768)" fill="#ffb74b" stroke="#212529" stroke-width="2"/></g></svg>