<svg xmlns="http://www.w3.org/2000/svg" width="95.677" height="95.677" viewBox="0 0 95.677 95.677"><path d="M368,352h15.432v27.777H368Zm0,0" transform="translate(-297.014 -284.1)" fill="#f0bc5e"/><path d="M48,352H63.432v27.777H48Zm0,0" transform="translate(-38.741 -284.1)" fill="#f0bc5e"/><path d="M48.975,98.518a9.275,9.275,0,0,1,2.646.384l.35-1.179a6.132,6.132,0,0,0,1.119-.778l-.667-.744.078-.259c-.127-.037-.258-.051-.384-.085l-1.085-1.211a3.086,3.086,0,1,1,0-4.6l2.059-2.3a6.156,6.156,0,0,0-8.773,8.607,12.393,12.393,0,0,0-7.162,7.879,13.86,13.86,0,0,1,11.82-21.145,14,14,0,0,1,2.78.28l.612-3.026a16.975,16.975,0,1,0,0,33.27l-.612-3.026a13.994,13.994,0,0,1-2.78.28,13.818,13.818,0,0,1-9.236-3.545,9.262,9.262,0,0,1,9.236-8.8Zm0,0" transform="translate(-25.827 -64.568)"/><path d="M12.345,122.073H9.259V109.727H0V48H26.234v3.086H3.086v55.555h9.259Zm0,0" transform="translate(0 -38.741)"/><path d="M80,352h3.086v27.777H80Zm0,0" transform="translate(-64.568 -284.1)"/><path d="M32,288H47.432v3.086H32Zm0,0" transform="translate(-25.827 -232.445)"/><path d="M32,320H47.432v3.086H32Zm0,0" transform="translate(-25.827 -258.273)"/><path d="M375.755,96.975A16.986,16.986,0,0,0,355.387,80.34L356,83.366a13.9,13.9,0,0,1,16.669,13.609,13.8,13.8,0,0,1-2.068,7.256,12.4,12.4,0,0,0-7.162-7.879,6.158,6.158,0,0,0-8.775-8.607l2.059,2.3a3.086,3.086,0,1,1,0,4.6l-1.085,1.211c-.127.034-.259.047-.384.085l.078.259-.667.744a6.131,6.131,0,0,0,1.119.778l.35,1.179a9.254,9.254,0,0,1,11.882,8.417,13.818,13.818,0,0,1-9.236,3.544,13.994,13.994,0,0,1-2.78-.28l-.612,3.026a16.987,16.987,0,0,0,20.367-16.635Zm0,0" transform="translate(-286.25 -64.568)"/><path d="M360,48v3.086h23.148v55.555h-9.259v15.432h3.086V109.727h9.259V48Zm0,0" transform="translate(-290.557 -38.741)"/><path d="M384,288h15.432v3.086H384Zm0,0" transform="translate(-309.927 -232.445)"/><path d="M384,320h15.432v3.086H384Zm0,0" transform="translate(-309.927 -258.273)"/><path d="M128,0V61.727h29.338c.058-.062.109-.128.17-.187l1.356-1.356V54.011l-3.671-3.671a3.274,3.274,0,0,1,2.315-5.588h.208a3.274,3.274,0,0,1,2.045.717L165.421,50a3.082,3.082,0,0,1,1.159,2.409v9.319H174.3V0Zm23.148,38.58A15.432,15.432,0,1,1,166.58,23.148,15.432,15.432,0,0,1,151.148,38.58Zm0,0" transform="translate(-103.309)" fill="#f0bc5e"/><path d="M176.975,32A16.975,16.975,0,1,0,193.95,48.975,17,17,0,0,0,176.975,32Zm0,3.086A13.862,13.862,0,0,1,188.8,56.231a12.4,12.4,0,0,0-7.162-7.879,6.174,6.174,0,1,0-9.316,0,12.393,12.393,0,0,0-7.162,7.879,13.86,13.86,0,0,1,11.82-21.145Zm-3.086,9.259a3.086,3.086,0,1,1,3.086,3.086A3.089,3.089,0,0,1,173.889,44.345Zm-6.149,14.974a9.246,9.246,0,0,1,18.471,0,13.8,13.8,0,0,1-18.471,0Zm0,0" transform="translate(-129.136 -25.827)"/><path d="M48,448h3.086v3.086H48Zm0,0" transform="translate(-38.741 -361.582)"/><path d="M48,480h3.086v3.086H48Zm0,0" transform="translate(-38.741 -387.409)"/><path d="M112,416h3.086v3.086H112Zm0,0" transform="translate(-90.395 -335.755)"/><path d="M112,448h3.086v9.259H112Zm0,0" transform="translate(-90.395 -361.582)"/><path d="M160,240h3.086v3.086H160Zm0,0" transform="translate(-129.136 -193.705)"/><path d="M192,240h9.259v3.086H192Zm0,0" transform="translate(-154.964 -193.705)"/><path d="M160,272h15.432v3.086H160Zm0,0" transform="translate(-129.136 -219.532)"/><path d="M432,448h3.086v3.086H432Zm0,0" transform="translate(-348.668 -361.582)"/><path d="M432,480h3.086v3.086H432Zm0,0" transform="translate(-348.668 -387.409)"/><path d="M400,352h3.086v27.777H400Zm0,0" transform="translate(-322.841 -284.1)"/><path d="M368,416h3.086v3.086H368Zm0,0" transform="translate(-297.014 -335.755)"/><path d="M368,448h3.086v9.259H368Zm0,0" transform="translate(-297.014 -361.582)"/><path d="M192,320h3.086v7.716H192Zm0,0" transform="translate(-154.964 -258.273)"/><path d="M224,320h3.086v7.716H224Zm0,0" transform="translate(-180.791 -258.273)"/><path d="M155.209,248.691V233.2a4.608,4.608,0,0,0-1.738-3.615l-5.66-4.529A4.848,4.848,0,0,0,144.8,224h-.208a4.817,4.817,0,0,0-3.406,8.222l3.219,3.219v4.895l-.9.9a12.633,12.633,0,0,0-3.725,8.994h3.086a9.57,9.57,0,0,1,2.821-6.812l1.808-1.808v-7.451l-4.123-4.123a1.731,1.731,0,0,1,1.224-2.954h.208a1.729,1.729,0,0,1,1.081.38l5.66,4.528a1.536,1.536,0,0,1,.58,1.2v20.636a1.557,1.557,0,0,1-.309.928l-3.393,4.526a4.648,4.648,0,0,0-.928,2.777v5.143H128.975v-5.143a4.648,4.648,0,0,0-.928-2.777l-3.393-4.528a1.549,1.549,0,0,1-.309-.926V242.518h-3.086v6.173H112v9.259h3.086v-6.173h6.173v2.057a4.648,4.648,0,0,0,.928,2.777l3.393,4.529a1.551,1.551,0,0,1,.309.926v5.142H122.8v9.259h30.864v-9.259H150.58v-5.143a1.557,1.557,0,0,1,.309-.928l3.393-4.526a4.648,4.648,0,0,0,.928-2.777v-2.057h6.173v6.173h3.086v-9.259Zm-4.63,24.691H125.889V270.3H150.58Zm0,0" transform="translate(-90.395 -180.791)"/></svg>