<svg xmlns="http://www.w3.org/2000/svg" width="112.993" height="113.036" viewBox="0 0 112.993 113.036"><g transform="translate(-0.002 0)"><path d="M321.507,159.727a5.1,5.1,0,0,1,5.059,5.161l-.348,29.228a12.206,12.206,0,0,1-3.075,7.962l-19.582,22.083a6.149,6.149,0,0,0-1.551,4.125l.071,7.536H280.5l-3.995-21.87a15.513,15.513,0,0,1,3.658-13.225c.13-.141.266-.284.4-.425l18.508-18.959a4.273,4.273,0,0,1,6.222,5.855l-11.146,12.287a3.961,3.961,0,0,0,5.849,5.343l12.9-14.03a7.5,7.5,0,0,0,1.956-4.537l1.536-21.791a5.1,5.1,0,0,1,5.086-4.741Zm0,0" transform="translate(-215.251 -124.463)" fill="#ffd3ae"/><path d="M286.532,272.476a15.508,15.508,0,0,0-3.658,13.224l3.995,21.871H280.5L276.5,285.7a15.512,15.512,0,0,1,3.658-13.224c.13-.141.266-.284.4-.426l18.508-18.958a4.279,4.279,0,0,1,6.179.065.672.672,0,0,1,.061.071L286.933,272.05c-.135.142-.271.285-.4.426Zm0,0" transform="translate(-215.251 -196.213)" fill="#e5b48f"/><path d="M54.014,200.726a15.519,15.519,0,0,1,3.656,13.224l-3.992,21.871H32.091l.071-7.537a6.152,6.152,0,0,0-1.548-4.124L11.031,202.078a12.236,12.236,0,0,1-3.079-7.962L7.6,164.888a5.1,5.1,0,0,1,5.059-5.161H12.7a5.1,5.1,0,0,1,5.086,4.741l1.539,21.791a7.493,7.493,0,0,0,1.956,4.537l12.894,14.03a3.961,3.961,0,0,0,5.849-5.343L28.879,187.2a4.273,4.273,0,0,1,6.222-5.855L53.61,200.3c.139.142.272.285.4.426Zm0,0" transform="translate(-5.924 -124.463)" fill="#ffd3ae"/><path d="M37.812,223.025,18.23,200.941a12.228,12.228,0,0,1-3.079-7.962L12.7,158.59c-.017-1.432,2.661,2.431,3.6,1.494a5.084,5.084,0,0,0-3.6-1.494h-.036a5.1,5.1,0,0,0-5.06,5.161l.348,29.228a12.232,12.232,0,0,0,3.079,7.962l19.583,22.083a6.148,6.148,0,0,1,1.548,4.125l-.071,7.536h7.2l.071-7.536a6.144,6.144,0,0,0-1.548-4.125Zm0,0" transform="translate(-5.924 -123.326)" fill="#e5b48f"/><path d="M164.555,19.623l4.684,9.491a4.7,4.7,0,0,0,3.539,2.571l10.473,1.522a4.7,4.7,0,0,1,2.605,8.018l-7.579,7.387a4.7,4.7,0,0,0-1.351,4.16L178.715,63.2a4.7,4.7,0,0,1-6.82,4.955l-9.368-4.925a4.7,4.7,0,0,0-4.374,0l-9.368,4.925a4.7,4.7,0,0,1-6.82-4.955l1.789-10.432a4.7,4.7,0,0,0-1.352-4.16l-7.579-7.387a4.7,4.7,0,0,1,2.605-8.018L147.9,31.685a4.7,4.7,0,0,0,3.538-2.571l4.685-9.491a4.7,4.7,0,0,1,8.43,0Zm0,0" transform="translate(-103.946 -13.249)" fill="#e8a328"/><path d="M188.35,51.889l3.458,7.006a3.471,3.471,0,0,0,2.612,1.9l7.731,1.123a3.469,3.469,0,0,1,1.923,5.918l-5.594,5.453a3.47,3.47,0,0,0-1,3.071l1.321,7.7a3.47,3.47,0,0,1-5.035,3.657l-6.915-3.635a3.465,3.465,0,0,0-3.229,0l-6.916,3.635a3.47,3.47,0,0,1-5.034-3.657l1.32-7.7a3.47,3.47,0,0,0-1-3.071L166.4,67.834a3.47,3.47,0,0,1,1.923-5.918l7.731-1.123a3.472,3.472,0,0,0,2.612-1.9l3.457-7.006a3.469,3.469,0,0,1,6.222,0Zm0,0" transform="translate(-128.846 -38.926)" fill="#ffbf3e"/><path d="M49.317,193.655l-.018-.019c-.135-.145-.272-.29-.411-.432L30.38,174.246a5.9,5.9,0,0,0-4.259-1.793,5.949,5.949,0,0,0-4.408,9.948l11.145,12.286a2.282,2.282,0,0,1-3.369,3.08l-12.894-14.03a5.838,5.838,0,0,1-1.518-3.52l-1.539-21.789a6.8,6.8,0,0,0-6.761-6.3h-.05A6.777,6.777,0,0,0,0,158.984L.35,188.213a13.91,13.91,0,0,0,3.5,9.055l19.581,22.083a4.454,4.454,0,0,1,1.126,3l-.071,7.536a1.678,1.678,0,0,0,1.679,1.695H47.754a1.679,1.679,0,0,0,1.652-1.377l3.991-21.87a17.271,17.271,0,0,0-4.064-14.654l-.016-.019Zm.778,14.07-3.74,20.493H27.862l.055-5.844a7.814,7.814,0,0,0-1.971-5.251L6.363,195.039a10.542,10.542,0,0,1-2.655-6.866l-.348-29.229a3.419,3.419,0,0,1,3.38-3.462h.037a3.433,3.433,0,0,1,3.413,3.181l1.539,21.791a9.209,9.209,0,0,0,2.394,5.555l12.9,14.03a5.663,5.663,0,0,0,7.631.616,5.638,5.638,0,0,0,.7-8.224L24.2,180.145a2.61,2.61,0,0,1,.028-3.516,2.6,2.6,0,0,1,3.748-.039l18.511,18.961c.123.126.241.252.359.378l.009.01a13.9,13.9,0,0,1,3.239,11.786Zm0,0" transform="translate(0 -118.539)"/><path d="M320.393,154.157a6.735,6.735,0,0,0-4.8-2.032h-.037a6.806,6.806,0,0,0-6.761,6.3l-1.536,21.789a5.848,5.848,0,0,1-1.517,3.521l-12.9,14.028a2.292,2.292,0,0,1-3.091.248,2.282,2.282,0,0,1-.279-3.326L300.621,182.4a5.948,5.948,0,0,0-4.409-9.947,5.9,5.9,0,0,0-4.259,1.792l-18.52,18.971c-.144.151-.289.3-.43.457a17.267,17.267,0,0,0-4.068,14.655l4,21.87a1.679,1.679,0,0,0,1.651,1.377h21.583a1.68,1.68,0,0,0,1.679-1.695l-.071-7.531a4.467,4.467,0,0,1,1.129-3l10.147-11.443a1.679,1.679,0,0,0-2.512-2.228l-10.146,11.442a7.821,7.821,0,0,0-1.975,5.255l.054,5.841H275.982l-3.744-20.493a13.887,13.887,0,0,1,3.247-11.791c.121-.132.247-.265.363-.385l18.509-18.96a2.6,2.6,0,0,1,3.75.039,2.612,2.612,0,0,1,.027,3.516l-11.146,12.287a5.64,5.64,0,0,0,8.328,7.607l12.9-14.031a9.229,9.229,0,0,0,2.392-5.554l1.536-21.789a3.435,3.435,0,0,1,3.412-3.182h.024a3.419,3.419,0,0,1,3.394,3.462l-.348,29.229a10.53,10.53,0,0,1-2.654,6.867l-5.242,5.912a1.679,1.679,0,1,0,2.512,2.228l5.242-5.911a13.882,13.882,0,0,0,3.5-9.056l.349-29.228A6.735,6.735,0,0,0,320.393,154.157Zm0,0" transform="translate(-209.337 -118.539)"/><path d="M171.907,63.234a6.342,6.342,0,0,0,2.538-6.239l-1.789-10.432a3.021,3.021,0,0,1,.869-2.674L181.1,36.5a6.379,6.379,0,0,0-3.536-10.881L167.1,24.1a3.02,3.02,0,0,1-2.275-1.652l-4.685-9.491a6.379,6.379,0,0,0-11.441,0l-4.685,9.491a3.022,3.022,0,0,1-2.275,1.653L131.261,25.62A6.379,6.379,0,0,0,127.727,36.5a1.679,1.679,0,0,0,2.343-2.4,3.022,3.022,0,0,1,1.675-5.154l10.474-1.522a6.376,6.376,0,0,0,4.8-3.489l4.684-9.491a3.022,3.022,0,0,1,5.419,0l4.685,9.491a6.376,6.376,0,0,0,4.8,3.489l10.474,1.522A3.022,3.022,0,0,1,178.76,34.1l-7.579,7.388a6.375,6.375,0,0,0-1.834,5.646l1.789,10.432a3.021,3.021,0,0,1-4.384,3.185l-9.367-4.925a6.385,6.385,0,0,0-5.938,0l-9.367,4.925a3.021,3.021,0,0,1-4.384-3.185l1.789-10.432a6.375,6.375,0,0,0-1.834-5.646L134.1,38.029a1.679,1.679,0,1,0-2.343,2.4l3.544,3.455a3.022,3.022,0,0,1,.868,2.675L134.385,57a6.372,6.372,0,0,0,9.256,6.725l9.368-4.925a3.018,3.018,0,0,1,2.811,0l9.368,4.925a6.342,6.342,0,0,0,6.718-.486Zm0,0" transform="translate(-98.022 -7.323)"/><path d="M376.591,12.688a1.675,1.675,0,0,0,2.2-.887l4.029-9.461a1.679,1.679,0,1,0-3.089-1.316L375.7,10.486A1.678,1.678,0,0,0,376.591,12.688Zm0,0" transform="translate(-292.652 -0.003)"/><path d="M409.109,67.676a1.678,1.678,0,0,0,2.116,1.075l10.3-3.357a1.679,1.679,0,0,0-1.041-3.193l-10.3,3.357A1.679,1.679,0,0,0,409.109,67.676Zm0,0" transform="translate(-318.722 -48.404)"/><path d="M403.157,129.131a1.679,1.679,0,0,0-1.123,3.165l6.939,2.462a1.679,1.679,0,0,0,1.122-3.165Zm0,0" transform="translate(-312.403 -100.546)"/><path d="M105.992,11.8a1.679,1.679,0,0,0,3.089-1.316l-4.029-9.461a1.679,1.679,0,1,0-3.089,1.315Zm0,0" transform="translate(-79.346)"/><path d="M41.14,65.4l10.3,3.357a1.679,1.679,0,0,0,1.041-3.193L42.181,62.2A1.679,1.679,0,0,0,41.14,65.4Zm0,0" transform="translate(-31.153 -48.405)"/><path d="M71.356,129.131l-6.939,2.462a1.679,1.679,0,0,0,1.123,3.165l6.939-2.462a1.679,1.679,0,0,0-1.123-3.165Zm0,0" transform="translate(-49.323 -100.546)"/></g></svg>